<?xml version="1.0" standalone="no"?>
<!DOCTYPE svg PUBLIC "-//W3C//DTD SVG 20010904//EN"
 "http://www.w3.org/TR/2001/REC-SVG-20010904/DTD/svg10.dtd">
<svg version="1.0" xmlns="http://www.w3.org/2000/svg"
 width="512.000000pt" height="512.000000pt" viewBox="0 0 512.000000 512.000000"
 preserveAspectRatio="xMidYMid meet">
<metadata>
Created by potrace 1.14, written by Peter Selinger 2001-2017
</metadata>
<g transform="translate(0.000000,512.000000) scale(0.100000,-0.100000)"
fill="#000000" stroke="none">
<path d="M2570 4805 c0 -8 -4 -15 -10 -15 -15 0 -12 -80 4 -96 18 -18 73 -18
90 -1 20 20 29 55 21 93 -6 33 -7 34 -55 34 -38 0 -50 -4 -50 -15z"/>
<path d="M2578 4622 c-22 -2 -28 -9 -28 -27 0 -12 -7 -25 -15 -29 -17 -6 -21
-56 -5 -56 6 0 10 -6 10 -14 0 -29 30 -46 81 -46 37 0 49 4 49 15 0 8 7 15 15
15 23 0 21 94 -3 118 -21 21 -62 30 -104 24z"/>
<path d="M2550 4385 c0 -8 -7 -15 -15 -15 -12 0 -15 -14 -15 -67 1 -66 14
-103 38 -103 5 0 12 -7 16 -15 3 -9 19 -15 41 -15 24 0 35 4 35 15 0 9 9 15
25 15 21 0 25 5 25 30 0 17 5 30 10 30 6 0 10 18 10 40 0 22 -4 40 -10 40 -5
0 -10 4 -10 10 0 5 -8 19 -17 30 -22 26 -133 30 -133 5z"/>
<path d="M2596 4098 c-3 -13 -3 -113 0 -223 5 -145 3 -216 -6 -260 -7 -33 -15
-86 -17 -117 -3 -32 -9 -58 -14 -58 -5 0 -9 -13 -9 -28 0 -16 -7 -37 -15 -48
-8 -10 -15 -29 -15 -41 0 -13 -4 -23 -10 -23 -5 0 -10 -13 -10 -30 0 -28 -2
-30 -39 -30 -22 0 -46 7 -55 15 -8 8 -23 15 -34 15 -11 0 -22 7 -26 15 -3 9
-19 15 -41 15 -24 0 -35 4 -35 15 0 11 -11 15 -39 15 -23 0 -41 5 -43 13 -4 9
-55 12 -213 12 -158 0 -209 -3 -212 -12 -3 -7 -20 -13 -39 -13 -24 0 -34 -5
-34 -15 0 -9 -9 -15 -25 -15 -16 0 -25 -6 -25 -15 0 -8 -7 -15 -15 -15 -8 0
-15 -7 -15 -15 0 -8 -4 -15 -10 -15 -5 0 -10 -5 -10 -11 0 -6 -7 -17 -15 -25
-34 -34 -6 -213 33 -214 6 0 12 -7 12 -15 0 -8 9 -15 20 -15 11 0 20 -7 20
-15 0 -8 5 -15 11 -15 6 0 17 -7 25 -15 9 -8 26 -15 39 -15 13 0 25 -5 27 -11
2 -6 25 -13 51 -16 26 -3 47 -10 47 -14 0 -5 54 -9 120 -9 66 0 120 4 120 9 0
4 27 11 60 15 33 4 60 11 60 16 0 6 11 10 25 10 16 0 25 6 25 15 0 9 9 15 25
15 16 0 25 6 25 15 0 9 9 15 25 15 16 0 25 6 25 15 0 8 5 15 11 15 6 0 24 14
41 30 16 17 33 30 38 30 4 0 11 11 14 25 5 21 12 25 41 25 24 0 35 -5 35 -15
0 -9 9 -15 25 -15 16 0 25 -6 25 -15 0 -9 9 -15 25 -15 14 0 25 -4 25 -9 0 -5
9 -12 19 -16 22 -7 38 -44 23 -54 -5 -3 -12 -16 -16 -28 -4 -13 -12 -23 -17
-23 -5 0 -9 -5 -9 -10 0 -6 -18 -27 -40 -49 -22 -21 -40 -44 -40 -50 0 -6 -6
-11 -13 -11 -8 0 -20 -12 -28 -27 -17 -35 -34 -53 -48 -53 -6 0 -11 -7 -11
-15 0 -8 -4 -15 -10 -15 -5 0 -10 -7 -10 -15 0 -8 -7 -15 -15 -15 -8 0 -15 -5
-15 -11 0 -6 -22 -33 -50 -59 -27 -26 -50 -53 -50 -59 0 -6 -4 -11 -10 -11 -5
0 -10 -7 -10 -15 0 -8 -6 -15 -14 -15 -8 0 -17 -6 -20 -12 -5 -10 -7 -10 -12
0 -3 6 -17 12 -31 12 -13 0 -31 7 -39 15 -9 8 -26 15 -39 15 -12 0 -25 7 -29
15 -3 9 -18 15 -36 15 -16 0 -30 4 -30 10 0 5 -18 13 -40 16 -22 4 -40 10 -40
15 0 4 -40 11 -90 15 -49 3 -90 10 -90 15 0 5 -7 9 -15 9 -8 0 -15 -4 -15 -9
0 -4 -41 -11 -92 -15 -50 -3 -94 -10 -97 -15 -4 -5 -23 -12 -44 -16 -20 -4
-37 -11 -37 -15 0 -4 -11 -11 -25 -14 -14 -4 -25 -11 -25 -16 0 -6 -7 -10 -15
-10 -8 0 -15 -7 -15 -15 0 -8 -7 -15 -15 -15 -8 0 -15 -4 -15 -8 0 -5 -16 -25
-35 -45 -21 -22 -35 -46 -35 -62 0 -14 -4 -25 -10 -25 -6 0 -10 -27 -10 -60 0
-33 4 -60 10 -60 6 0 10 -11 10 -25 0 -16 6 -25 15 -25 8 0 15 -5 15 -11 0
-15 39 -49 57 -49 7 0 13 -4 13 -10 0 -5 6 -10 14 -10 8 0 21 -6 28 -13 7 -8
38 -17 68 -20 30 -4 56 -11 58 -17 6 -17 181 -13 198 5 10 9 34 15 64 15 33 0
50 5 54 15 3 8 15 15 26 15 11 0 20 5 20 10 0 6 11 10 25 10 14 0 28 7 31 15
4 8 15 15 25 15 10 0 19 6 19 14 0 8 11 17 25 20 14 4 25 11 25 16 0 6 7 10
15 10 8 0 15 7 15 15 0 8 5 15 10 15 12 0 23 8 86 67 37 36 52 43 84 43 29 0
40 -4 40 -15 0 -9 9 -15 24 -15 13 0 26 -7 30 -15 3 -8 15 -15 26 -15 37 0 17
-40 -28 -54 -12 -4 -22 -12 -22 -17 0 -5 -11 -9 -25 -9 -16 0 -25 -6 -25 -15
0 -8 -7 -15 -15 -15 -8 0 -15 -4 -15 -10 0 -5 -11 -12 -25 -16 -14 -3 -25 -11
-25 -16 0 -13 -26 -38 -39 -38 -6 0 -24 -13 -41 -30 -17 -16 -35 -30 -39 -30
-5 0 -11 -7 -15 -15 -3 -8 -12 -15 -21 -15 -8 0 -15 -5 -15 -11 0 -6 -22 -33
-50 -59 -27 -26 -50 -53 -50 -59 0 -6 -7 -11 -15 -11 -8 0 -15 -7 -15 -15 0
-8 -4 -15 -9 -15 -5 0 -12 -11 -15 -25 -4 -14 -11 -25 -16 -25 -6 0 -10 -7
-10 -15 0 -8 -4 -15 -10 -15 -5 0 -10 -7 -10 -15 0 -8 -7 -15 -15 -15 -9 0
-15 -9 -15 -25 0 -14 -4 -25 -9 -25 -5 0 -12 -14 -16 -30 -4 -17 -11 -30 -16
-30 -5 0 -9 -13 -9 -30 0 -16 -4 -30 -9 -30 -5 0 -12 -14 -16 -30 -4 -17 -11
-30 -16 -30 -5 0 -9 -29 -9 -65 0 -37 -4 -65 -10 -65 -6 0 -10 -47 -10 -120 0
-73 4 -120 10 -120 6 0 10 -30 10 -70 0 -38 4 -70 9 -70 5 0 11 -18 15 -40 3
-22 11 -40 16 -40 6 0 10 -13 10 -30 0 -16 4 -30 10 -30 5 0 12 -11 16 -25 3
-14 10 -25 15 -25 5 0 9 -13 9 -30 0 -20 5 -30 15 -30 8 0 15 -7 15 -15 0 -8
5 -15 10 -15 6 0 10 -7 10 -15 0 -8 4 -15 10 -15 5 0 12 -11 16 -25 3 -14 12
-25 20 -25 16 0 54 -35 54 -50 0 -5 5 -10 11 -10 6 0 17 -6 24 -12 34 -30 45
-38 55 -38 6 0 13 -7 16 -15 4 -8 18 -15 34 -15 16 0 30 -7 34 -15 3 -8 16
-15 30 -15 13 0 26 -5 28 -12 3 -7 32 -14 76 -16 40 -2 72 -8 72 -13 0 -5 29
-9 65 -9 37 0 65 4 65 10 0 6 31 10 74 10 53 0 79 4 90 15 8 8 31 15 50 15 25
0 36 4 36 15 0 9 9 15 25 15 14 0 25 4 25 10 0 5 11 12 25 16 14 3 25 10 25
14 0 5 10 12 22 16 26 8 78 57 78 73 0 6 11 11 25 11 16 0 25 6 25 15 0 8 4
15 10 15 5 0 12 11 16 25 3 14 10 25 15 25 5 0 9 6 9 14 0 8 7 16 15 20 8 3
15 17 15 31 0 14 4 25 9 25 5 0 12 11 15 25 4 14 11 25 16 25 6 0 10 20 10 45
0 25 5 45 10 45 6 0 10 40 10 100 0 60 -4 100 -10 100 -5 0 -10 20 -10 44 0
26 -6 51 -15 60 -8 8 -15 26 -15 40 0 14 -4 26 -10 26 -5 0 -10 11 -10 24 0
13 -7 26 -15 30 -8 3 -15 12 -15 21 0 8 -4 15 -9 15 -5 0 -12 8 -16 19 -8 28
-95 111 -115 111 -5 0 -10 7 -10 15 0 9 -9 15 -25 15 -16 0 -25 6 -25 15 0 9
-9 15 -25 15 -16 0 -25 6 -25 15 0 9 -9 15 -24 15 -13 0 -26 6 -28 13 -6 17
-340 17 -345 0 -3 -7 -16 -13 -29 -13 -14 0 -27 -7 -30 -15 -4 -8 -13 -15 -21
-15 -9 0 -29 -13 -45 -30 -15 -16 -35 -30 -43 -30 -9 0 -15 -10 -15 -25 0 -16
-6 -25 -15 -25 -8 0 -15 -6 -15 -14 0 -8 -3 -16 -7 -18 -14 -6 -43 -69 -43
-94 0 -13 -4 -24 -10 -24 -6 0 -10 -28 -10 -65 0 -37 4 -65 10 -65 6 0 10 -13
10 -29 0 -16 6 -31 15 -35 8 -3 15 -15 15 -27 0 -12 20 -40 45 -65 43 -41 49
-44 100 -44 33 0 55 4 55 11 0 6 7 17 15 25 8 9 15 33 15 55 0 26 -5 42 -15
45 -8 4 -15 12 -15 19 0 14 -93 8 -98 -6 -6 -15 -32 -10 -32 6 0 8 -4 15 -10
15 -5 0 -10 11 -10 25 0 14 -4 25 -10 25 -5 0 -10 20 -10 45 0 25 5 45 10 45
6 0 10 16 10 35 0 25 7 43 25 59 14 13 25 26 25 30 0 13 55 63 78 70 12 4 22
12 22 17 0 5 11 9 25 9 16 0 25 6 25 15 0 12 13 15 55 15 30 0 55 5 55 10 0 6
20 10 45 10 25 0 45 -4 45 -10 0 -5 21 -10 46 -10 27 0 51 -6 60 -15 9 -8 29
-15 45 -15 19 0 29 -5 29 -15 0 -8 5 -15 11 -15 6 0 17 -6 24 -12 33 -30 45
-38 55 -38 5 0 10 -7 10 -15 0 -8 7 -15 15 -15 8 0 15 -7 15 -15 0 -8 5 -15
10 -15 6 0 10 -7 10 -15 0 -8 4 -15 10 -15 5 0 12 -11 16 -25 3 -14 10 -25 15
-25 5 0 9 -16 9 -35 0 -20 7 -47 16 -60 20 -31 17 -206 -3 -213 -8 -2 -13 -21
-13 -48 0 -24 -4 -44 -9 -44 -5 0 -12 -11 -15 -25 -4 -14 -11 -25 -16 -25 -6
0 -10 -7 -10 -15 0 -8 -4 -15 -10 -15 -5 0 -10 -7 -10 -15 0 -8 -7 -15 -15
-15 -8 0 -15 -5 -15 -11 0 -16 -88 -99 -105 -99 -8 0 -15 -7 -15 -15 0 -8 -7
-15 -15 -15 -9 0 -18 -7 -21 -15 -4 -8 -18 -15 -34 -15 -16 0 -30 -7 -34 -15
-3 -9 -18 -15 -40 -15 -19 0 -36 -6 -38 -12 -6 -18 -300 -18 -305 0 -3 6 -20
12 -39 12 -24 0 -34 5 -34 15 0 10 -10 15 -34 15 -21 0 -36 6 -40 15 -3 8 -15
15 -26 15 -11 0 -20 7 -20 15 0 8 -7 15 -15 15 -8 0 -15 4 -15 9 0 5 -10 11
-23 15 -13 3 -29 17 -37 31 -7 14 -19 25 -27 25 -7 0 -13 7 -13 15 0 8 -7 15
-15 15 -8 0 -15 7 -15 15 0 8 -4 15 -10 15 -5 0 -10 7 -10 15 0 8 -4 15 -10
15 -5 0 -12 11 -16 25 -3 14 -10 25 -14 25 -5 0 -11 13 -15 30 -4 16 -11 30
-16 30 -5 0 -9 14 -9 30 0 17 -4 30 -9 30 -5 0 -11 23 -13 52 -3 29 -11 54
-17 56 -15 5 -15 219 0 224 6 2 14 27 17 56 2 29 8 52 13 52 5 0 9 11 9 24 0
25 29 88 43 94 4 2 7 14 7 27 0 12 7 25 15 29 8 3 15 12 15 21 0 8 5 15 10 15
6 0 10 11 10 25 0 16 6 25 15 25 8 0 15 7 15 15 0 8 5 15 10 15 6 0 10 7 10
15 0 8 7 15 15 15 8 0 15 7 15 15 0 8 4 15 8 15 5 0 15 11 22 25 7 14 19 25
27 25 7 0 13 7 13 15 0 8 7 15 15 15 8 0 15 5 15 11 0 16 88 99 105 99 8 0 15
7 15 15 0 8 7 15 15 15 8 0 15 7 15 15 0 9 9 15 25 15 16 0 25 6 25 15 0 8 7
15 15 15 8 0 15 5 15 10 0 6 9 10 20 10 11 0 23 7 26 15 4 8 15 15 25 15 11 0
22 7 25 15 4 8 17 15 30 15 15 0 24 6 24 15 0 21 78 21 86 0 4 -8 14 -15 24
-15 10 0 20 -7 24 -15 3 -8 13 -15 21 -15 9 0 23 -7 31 -15 9 -8 24 -15 35
-15 10 0 19 -4 19 -10 0 -5 9 -10 19 -10 11 0 26 -7 35 -15 8 -8 24 -15 35
-15 11 0 26 -7 35 -15 8 -8 24 -15 36 -15 12 0 28 -7 36 -15 9 -8 33 -15 54
-15 21 0 40 -5 42 -11 2 -6 28 -14 58 -17 30 -2 58 -10 62 -16 10 -15 416 -15
426 0 4 6 17 14 30 18 12 4 22 12 22 17 0 5 7 9 15 9 8 0 15 7 15 15 0 9 9 15
25 15 20 0 25 5 25 25 0 14 4 25 9 25 5 0 12 13 16 30 4 17 11 30 16 30 5 0 9
32 9 70 0 40 -4 70 -10 70 -5 0 -10 5 -10 11 0 14 -65 79 -79 79 -6 0 -11 4
-11 10 0 5 -11 12 -25 16 -14 3 -25 10 -25 14 0 4 -20 11 -45 14 -25 4 -45 11
-45 15 0 5 -40 12 -90 15 -49 4 -90 12 -90 17 0 13 -157 12 -162 -1 -2 -6 -50
-14 -111 -17 -59 -3 -107 -10 -107 -14 0 -4 -27 -11 -60 -15 -33 -4 -60 -11
-60 -15 0 -5 -13 -9 -29 -9 -16 0 -36 -7 -45 -15 -8 -8 -29 -15 -46 -15 -18 0
-33 -6 -36 -15 -4 -9 -19 -15 -40 -15 -24 0 -34 -5 -34 -15 0 -20 -73 -20 -94
0 -8 8 -24 15 -35 15 -12 0 -21 6 -21 15 0 9 -9 15 -24 15 -13 0 -26 7 -30 15
-3 8 -15 15 -26 15 -11 0 -20 5 -20 10 0 6 5 10 10 10 6 0 10 9 10 20 0 11 4
20 9 20 5 0 13 10 17 22 3 12 22 36 40 54 19 17 34 36 34 43 0 6 7 11 15 11 8
0 15 4 15 10 0 5 19 29 43 54 69 72 107 115 107 122 0 4 11 17 25 30 14 13 25
26 25 29 0 10 28 35 39 35 6 0 11 5 11 10 0 6 9 19 20 30 24 24 80 27 80 5 0
-9 9 -15 25 -15 14 0 25 -4 25 -10 0 -5 11 -12 25 -16 14 -3 25 -10 25 -15 0
-5 11 -9 25 -9 16 0 25 -6 25 -15 0 -9 9 -15 25 -15 14 0 28 -7 31 -15 4 -9
19 -15 40 -15 24 0 34 -5 34 -15 0 -11 11 -15 39 -15 23 0 41 -5 43 -12 4 -10
37 -13 123 -13 86 0 119 3 122 13 3 6 15 12 28 12 13 0 30 7 39 15 8 8 19 15
25 15 6 0 11 4 11 10 0 5 11 12 25 16 14 3 25 12 25 20 0 8 5 14 10 14 6 0 10
7 10 15 0 8 4 15 10 15 5 0 12 11 16 25 3 14 10 25 15 25 5 0 9 45 9 100 0 60
-4 100 -10 100 -5 0 -10 7 -10 15 0 8 -7 15 -15 15 -8 0 -15 5 -15 11 0 15
-22 35 -48 43 -12 4 -22 12 -22 17 0 5 -11 9 -25 9 -16 0 -25 6 -25 15 0 13
-29 15 -199 15 -168 0 -200 -2 -205 -15 -3 -9 -18 -15 -40 -15 -21 0 -36 -6
-40 -15 -3 -8 -15 -15 -26 -15 -11 0 -20 -4 -20 -9 0 -5 -11 -12 -25 -15 -14
-4 -25 -11 -25 -16 0 -6 -7 -10 -15 -10 -8 0 -15 -7 -15 -15 0 -8 -6 -15 -14
-15 -17 0 -86 -65 -86 -80 0 -12 -41 -3 -50 10 -3 4 -15 10 -27 14 -13 4 -23
12 -23 17 0 5 -7 9 -15 9 -8 0 -15 4 -15 10 0 5 -11 12 -25 16 -14 3 -25 10
-25 14 0 5 -10 12 -22 16 -37 11 -67 54 -38 54 6 0 10 9 10 19 0 11 7 26 15
35 8 8 15 26 15 40 0 14 4 26 9 26 5 0 11 23 13 52 3 29 11 54 17 56 7 2 11
37 11 98 0 56 4 94 10 94 6 0 10 78 10 215 0 137 -4 215 -10 215 -5 0 -10 14
-10 30 0 25 -4 30 -24 30 -16 0 -26 -7 -30 -22z m-420 -843 c9 -8 33 -15 55
-15 28 0 39 -4 39 -15 0 -9 9 -15 25 -15 14 0 25 -4 25 -10 0 -5 16 -12 35
-16 19 -3 35 -10 35 -15 0 -5 7 -9 15 -9 8 0 15 -7 15 -15 0 -8 -4 -15 -10
-15 -5 0 -10 -7 -10 -15 0 -8 -7 -15 -15 -15 -8 0 -15 -7 -15 -15 0 -8 -5 -15
-11 -15 -6 0 -17 -6 -24 -12 -32 -29 -43 -36 -63 -42 -12 -4 -22 -12 -22 -17
0 -5 -11 -9 -25 -9 -14 0 -28 -7 -31 -15 -4 -10 -20 -15 -51 -15 -28 0 -51 -6
-61 -16 -13 -13 -31 -15 -96 -12 -48 3 -82 10 -84 16 -2 7 -21 12 -42 12 -24
0 -40 5 -44 15 -3 8 -12 15 -21 15 -23 0 -55 37 -55 65 0 14 -4 25 -10 25 -5
0 -10 9 -10 20 0 11 5 20 10 20 6 0 10 13 10 29 0 22 6 32 23 37 12 4 32 17
44 30 14 15 33 24 53 24 20 0 30 5 30 15 0 13 22 15 136 15 107 0 139 -3 150
-15z m1172 -86 c2 -5 15 -9 28 -9 14 0 27 -7 30 -15 4 -8 17 -15 30 -15 13 0
24 -6 24 -13 0 -7 11 -21 25 -31 14 -10 25 -25 25 -32 0 -8 5 -14 10 -14 6 0
10 -18 10 -40 0 -22 -4 -40 -10 -40 -5 0 -10 -10 -10 -21 0 -26 -64 -89 -91
-89 -10 0 -19 -7 -19 -15 0 -12 -16 -15 -84 -15 -65 0 -85 3 -90 15 -3 9 -19
15 -41 15 -19 0 -35 4 -35 9 0 5 -16 12 -35 15 -19 4 -35 11 -35 16 0 6 -11
10 -25 10 -14 0 -28 7 -31 15 -4 8 -17 15 -30 15 -14 0 -27 7 -30 15 -4 9 -19
15 -35 15 -19 0 -29 5 -29 15 0 8 -7 15 -15 15 -24 0 -18 13 25 50 22 19 40
41 40 48 0 6 11 12 25 12 16 0 25 6 25 15 0 9 9 15 24 15 13 0 26 7 30 15 3 9
19 15 41 15 19 0 35 4 35 9 0 20 211 20 218 0z m-1538 -649 c0 -6 32 -10 75
-10 58 0 77 -4 81 -15 4 -9 19 -15 39 -15 20 0 35 -6 39 -15 3 -9 18 -15 35
-15 16 0 31 -6 35 -15 3 -8 15 -15 26 -15 20 0 50 -21 50 -34 0 -12 -41 -46
-55 -46 -8 0 -15 -7 -15 -15 0 -8 -7 -15 -15 -15 -8 0 -15 -7 -15 -15 0 -8 -5
-15 -10 -15 -10 0 -21 -7 -53 -36 -7 -6 -23 -15 -35 -18 -12 -4 -22 -12 -22
-17 0 -5 -11 -9 -25 -9 -16 0 -25 -6 -25 -15 0 -9 -10 -15 -26 -15 -14 0 -32
-7 -40 -15 -9 -8 -33 -15 -55 -15 -21 0 -39 -4 -39 -10 0 -6 -30 -10 -70 -10
-40 0 -70 4 -70 10 0 6 -13 10 -29 10 -16 0 -36 7 -45 15 -8 8 -19 15 -25 15
-6 0 -11 6 -11 14 0 8 -3 16 -7 18 -5 2 -15 17 -24 33 -16 31 -15 105 2 105 5
0 9 11 9 25 0 14 5 25 10 25 6 0 10 4 10 10 0 5 16 25 35 45 25 24 45 35 65
35 20 0 30 5 30 15 0 12 15 15 75 15 43 0 75 4 75 10 0 6 5 10 10 10 6 0 10
-4 10 -10z m1440 -140 c0 -6 28 -10 64 -10 44 0 69 -5 80 -15 8 -8 31 -15 50
-15 25 0 36 -4 36 -15 0 -8 7 -15 15 -15 8 0 15 -7 15 -15 0 -8 5 -15 10 -15
6 0 10 -11 10 -25 0 -14 5 -25 10 -25 6 0 10 -20 10 -45 0 -25 -4 -45 -10 -45
-5 0 -10 -9 -10 -20 0 -23 -33 -60 -55 -60 -8 0 -15 -7 -15 -15 0 -13 -23 -15
-151 -15 -120 0 -153 3 -165 15 -10 9 -34 15 -64 15 -33 0 -50 5 -54 15 -3 9
-19 15 -41 15 -19 0 -35 5 -35 10 0 6 -11 10 -24 10 -14 0 -31 7 -40 15 -8 8
-24 15 -36 15 -11 0 -23 7 -26 15 -4 9 -19 15 -40 15 -24 0 -34 5 -34 15 0 9
-9 15 -25 15 -16 0 -25 6 -25 15 0 9 -9 15 -25 15 -14 0 -25 4 -25 10 0 5 11
12 25 16 14 3 25 10 25 15 0 5 11 9 24 9 14 0 31 7 40 15 8 8 31 15 50 15 25
0 36 4 36 15 0 11 12 15 51 15 31 0 56 6 65 15 11 11 37 15 90 15 43 0 74 4
74 10 0 6 27 10 60 10 33 0 60 -4 60 -10z"/>
</g>
</svg>
